<svg width="200" height="200" viewBox="0 0 200 200" fill="none" xmlns="http://www.w3.org/2000/svg">
<path d="M0 40C0 17.9086 17.9086 0 40 0H160C182.091 0 200 17.9086 200 40V160C200 182.091 182.091 200 160 200H40C17.9086 200 0 182.091 0 160V40Z" fill="#5BB777"/>
<g filter="url(#filter0_d_66_6765)">
<path d="M33.3334 73.3333C33.3334 51.2419 51.242 33.3333 73.3334 33.3333H126.667C148.758 33.3333 166.667 51.2419 166.667 73.3333V166.667H73.3334C51.242 166.667 33.3334 148.758 33.3334 126.667V73.3333Z" fill="#F4FFF5"/>
<path d="M60.0001 80C60.0001 76.3181 63.6737 73.3334 68.2053 73.3334H131.795C136.326 73.3334 140 76.3181 140 80C140 83.6819 136.326 86.6667 131.795 86.6667H68.2053C63.6737 86.6667 60.0001 83.6819 60.0001 80Z" fill="#5BB777"/>
<path d="M60.0001 103.333C60.0001 99.6516 62.9849 96.6667 66.6668 96.6667H106.667C110.349 96.6667 113.333 99.6516 113.333 103.333C113.333 107.015 110.349 110 106.667 110H66.6668C62.9849 110 60.0001 107.015 60.0001 103.333Z" fill="#5BB777"/>
<path d="M60.0001 126.667C60.0001 122.985 62.9849 120 66.6668 120H80.0001C83.682 120 86.6668 122.985 86.6668 126.667V126.667C86.6668 130.349 83.682 133.333 80.0001 133.333H66.6668C62.9849 133.333 60.0001 130.349 60.0001 126.667V126.667Z" fill="#5BB777"/>
</g>
<defs>
<filter id="filter0_d_66_6765" x="13.3334" y="20" width="173.333" height="173.333" filterUnits="userSpaceOnUse" color-interpolation-filters="sRGB">
<feFlood flood-opacity="0" result="BackgroundImageFix"/>
<feColorMatrix in="SourceAlpha" type="matrix" values="0 0 0 0 0 0 0 0 0 0 0 0 0 0 0 0 0 0 127 0" result="hardAlpha"/>
<feOffset dy="6.66667"/>
<feGaussianBlur stdDeviation="10"/>
<feComposite in2="hardAlpha" operator="out"/>
<feColorMatrix type="matrix" values="0 0 0 0 0.196249 0 0 0 0 0.55249 0 0 0 0 0.30467 0 0 0 0.5 0"/>
<feBlend mode="normal" in2="BackgroundImageFix" result="effect1_dropShadow_66_6765"/>
<feBlend mode="normal" in="SourceGraphic" in2="effect1_dropShadow_66_6765" result="shape"/>
</filter>
</defs>
</svg>
